<svg width="34" height="35" viewBox="0 0 34 35" fill="none" xmlns="http://www.w3.org/2000/svg">
<g clip-path="url(#clip0)">
<path d="M30.3571 4.26981H26.7143V1.84126C26.7143 1.17061 26.1706 0.626953 25.5 0.626953C24.8293 0.626953 24.2857 1.17061 24.2857 1.84126V4.26981H9.71426V1.84126C9.71426 1.17061 9.1706 0.626953 8.50002 0.626953C7.82943 0.626953 7.28571 1.17061 7.28571 1.84126V4.26981H3.64285C1.63096 4.26981 0 5.90077 0 7.91266V30.9841C0 32.996 1.63096 34.627 3.64285 34.627H30.3571C32.369 34.627 34 32.996 34 30.9841V7.91266C34 5.90077 32.369 4.26981 30.3571 4.26981ZM31.5714 30.9841C31.5714 31.6548 31.0277 32.1984 30.3571 32.1984H3.64285C2.9722 32.1984 2.42855 31.6548 2.42855 30.9841V15.1984H31.5714V30.9841ZM31.5714 12.7698H2.42855V7.91266C2.42855 7.24201 2.9722 6.69835 3.64285 6.69835H7.28571V9.1269C7.28571 9.79755 7.82936 10.3412 8.50002 10.3412C9.17067 10.3412 9.71433 9.79755 9.71433 9.1269V6.69835H24.2857V9.1269C24.2857 9.79755 24.8294 10.3412 25.5001 10.3412C26.1707 10.3412 26.7144 9.79755 26.7144 9.1269V6.69835H30.3572C31.0279 6.69835 31.5715 7.24201 31.5715 7.91266V12.7698H31.5714Z" fill="white"/>
<path d="M9.71511 17.627H7.28657C6.61592 17.627 6.07227 18.1706 6.07227 18.8413C6.07227 19.5119 6.61592 20.0555 7.28657 20.0555H9.71511C10.3858 20.0555 10.9294 19.5119 10.9294 18.8413C10.9294 18.1706 10.3858 17.627 9.71511 17.627Z" fill="white"/>
<path d="M18.2132 17.627H15.7846C15.114 17.627 14.5703 18.1706 14.5703 18.8413C14.5703 19.5119 15.114 20.0555 15.7846 20.0555H18.2132C18.8838 20.0555 19.4275 19.5119 19.4275 18.8413C19.4275 18.1706 18.8838 17.627 18.2132 17.627Z" fill="white"/>
<path d="M26.7151 17.627H24.2866C23.6159 17.627 23.0723 18.1706 23.0723 18.8413C23.0723 19.5119 23.6159 20.0555 24.2866 20.0555H26.7151C27.3858 20.0555 27.9294 19.5119 27.9294 18.8413C27.9294 18.1706 27.3857 17.627 26.7151 17.627Z" fill="white"/>
<path d="M9.71511 22.4834H7.28657C6.61592 22.4834 6.07227 23.0271 6.07227 23.6977C6.07227 24.3684 6.61592 24.912 7.28657 24.912H9.71511C10.3858 24.912 10.9294 24.3684 10.9294 23.6977C10.9294 23.0271 10.3858 22.4834 9.71511 22.4834Z" fill="white"/>
<path d="M18.2132 22.4834H15.7846C15.114 22.4834 14.5703 23.0271 14.5703 23.6977C14.5703 24.3684 15.114 24.912 15.7846 24.912H18.2132C18.8838 24.912 19.4275 24.3684 19.4275 23.6977C19.4275 23.0271 18.8838 22.4834 18.2132 22.4834Z" fill="white"/>
<path d="M26.7151 22.4834H24.2866C23.6159 22.4834 23.0723 23.0271 23.0723 23.6977C23.0723 24.3684 23.6159 24.912 24.2866 24.912H26.7151C27.3858 24.912 27.9294 24.3684 27.9294 23.6977C27.9294 23.0271 27.3857 22.4834 26.7151 22.4834Z" fill="white"/>
<path d="M9.71511 27.3418H7.28657C6.61592 27.3418 6.07227 27.8854 6.07227 28.5561C6.07227 29.2268 6.61592 29.7703 7.28657 29.7703H9.71511C10.3858 29.7703 10.9294 29.2267 10.9294 28.556C10.9294 27.8854 10.3858 27.3418 9.71511 27.3418Z" fill="white"/>
<path d="M18.2132 27.3418H15.7846C15.114 27.3418 14.5703 27.8854 14.5703 28.5561C14.5703 29.2268 15.114 29.7704 15.7846 29.7704H18.2132C18.8838 29.7704 19.4275 29.2268 19.4275 28.5561C19.4275 27.8854 18.8838 27.3418 18.2132 27.3418Z" fill="white"/>
<path d="M26.7151 27.3418H24.2866C23.6159 27.3418 23.0723 27.8854 23.0723 28.5561C23.0723 29.2268 23.6159 29.7704 24.2866 29.7704H26.7151C27.3858 29.7704 27.9294 29.2268 27.9294 28.5561C27.9294 27.8854 27.3857 27.3418 26.7151 27.3418Z" fill="white"/>
</g>
<defs>
<clipPath id="clip0">
<rect width="34" height="34" fill="white" transform="translate(0 0.626953)"/>
</clipPath>
</defs>
</svg>
