<svg width="25" height="23" viewBox="0 0 25 23" fill="none" xmlns="http://www.w3.org/2000/svg">
<path d="M16.004 22.7053H2.596C2.32075 22.7053 2.04819 22.6511 1.7939 22.5457C1.5396 22.4404 1.30854 22.286 1.1139 22.0914C0.919273 21.8967 0.764882 21.6657 0.659548 21.4114C0.554215 21.1571 0.5 20.8845 0.5 20.6093V12.0013C0.5 11.4454 0.720828 10.9123 1.1139 10.5192C1.50698 10.1261 2.04011 9.90527 2.596 9.90527H16.004C16.2792 9.90527 16.5518 9.95949 16.8061 10.0648C17.0604 10.1702 17.2915 10.3245 17.4861 10.5192C17.6807 10.7138 17.8351 10.9449 17.9405 11.1992C18.0458 11.4535 18.1 11.726 18.1 12.0013V20.6093C18.1 20.8845 18.0458 21.1571 17.9405 21.4114C17.8351 21.6657 17.6807 21.8967 17.4861 22.0914C17.2915 22.286 17.0604 22.4404 16.8061 22.5457C16.5518 22.6511 16.2792 22.7053 16.004 22.7053ZM2.596 11.5053C2.4651 11.5073 2.34013 11.5603 2.24756 11.6528C2.15498 11.7454 2.10206 11.8704 2.1 12.0013V20.6093C2.10206 20.7402 2.15498 20.8651 2.24756 20.9577C2.34013 21.0503 2.4651 21.1032 2.596 21.1053H16.004C16.1349 21.1032 16.2599 21.0503 16.3524 20.9577C16.445 20.8651 16.4979 20.7402 16.5 20.6093V12.0013C16.4979 11.8704 16.445 11.7454 16.3524 11.6528C16.2599 11.5603 16.1349 11.5073 16.004 11.5053H2.596Z" fill="white"/>
<path d="M22.484 20.9214C22.176 20.9205 21.8723 20.8494 21.596 20.7134L16.5 18.2254V14.3934L21.588 11.9054C21.8964 11.7548 22.2379 11.6852 22.5806 11.7029C22.9233 11.7206 23.2559 11.8252 23.547 12.0068C23.8382 12.1884 24.0784 12.441 24.2451 12.7409C24.4118 13.0409 24.4995 13.3783 24.5 13.7214V18.8974C24.5 19.4328 24.2879 19.9464 23.91 20.3258C23.5322 20.7051 23.0194 20.9193 22.484 20.9214ZM18.1 17.2254L22.292 19.2734C22.3562 19.3043 22.4271 19.3186 22.4983 19.3148C22.5694 19.3111 22.6385 19.2895 22.6991 19.252C22.7596 19.2146 22.8098 19.1624 22.8449 19.1004C22.8801 19.0385 22.899 18.9686 22.9 18.8974V13.7214C22.899 13.6502 22.8801 13.5803 22.8449 13.5183C22.8098 13.4564 22.7596 13.4042 22.6991 13.3668C22.6385 13.3293 22.5694 13.3077 22.4983 13.304C22.4271 13.3002 22.3562 13.3145 22.292 13.3454L18.1 15.3934V17.2254Z" fill="white"/>
<path d="M10.9006 17.1059C11.3424 17.1059 11.7006 16.7477 11.7006 16.3059C11.7006 15.864 11.3424 15.5059 10.9006 15.5059C10.4588 15.5059 10.1006 15.864 10.1006 16.3059C10.1006 16.7477 10.4588 17.1059 10.9006 17.1059Z" fill="white"/>
<path d="M7.69941 17.1059C8.14124 17.1059 8.49941 16.7477 8.49941 16.3059C8.49941 15.864 8.14124 15.5059 7.69941 15.5059C7.25759 15.5059 6.89941 15.864 6.89941 16.3059C6.89941 16.7477 7.25759 17.1059 7.69941 17.1059Z" fill="white"/>
<path d="M4.5 8.4336C3.70888 8.4336 2.93552 8.199 2.27772 7.75947C1.61992 7.31995 1.10723 6.69523 0.804484 5.96433C0.501733 5.23342 0.42252 4.42916 0.576861 3.65323C0.731202 2.87731 1.11216 2.16458 1.67157 1.60517C2.23098 1.04576 2.94372 0.664795 3.71964 0.510454C4.49556 0.356114 5.29983 0.435327 6.03074 0.738077C6.76164 1.04083 7.38635 1.55352 7.82588 2.21131C8.26541 2.86911 8.5 3.64247 8.5 4.4336C8.5 4.95888 8.39654 5.47903 8.19552 5.96433C7.9945 6.44963 7.69986 6.89059 7.32843 7.26202C6.95699 7.63346 6.51604 7.92809 6.03074 8.12911C5.54543 8.33013 5.02529 8.4336 4.5 8.4336ZM4.5 2.0336C4.02533 2.0336 3.56131 2.17435 3.16663 2.43807C2.77196 2.70178 2.46434 3.07661 2.28269 3.51516C2.10104 3.9537 2.05351 4.43626 2.14612 4.90181C2.23872 5.36737 2.4673 5.79501 2.80295 6.13065C3.13859 6.4663 3.56623 6.69488 4.03179 6.78748C4.49734 6.88008 4.9799 6.83256 5.41844 6.65091C5.85699 6.46926 6.23181 6.16164 6.49553 5.76696C6.75924 5.37229 6.9 4.90827 6.9 4.4336C6.9 3.79708 6.64715 3.18663 6.19706 2.73654C5.74697 2.28645 5.13652 2.0336 4.5 2.0336Z" fill="white"/>
<path d="M13.2988 8.4336C12.5077 8.4336 11.7343 8.199 11.0765 7.75947C10.4188 7.31995 9.90606 6.69523 9.60331 5.96433C9.30056 5.23342 9.22135 4.42916 9.37569 3.65323C9.53003 2.87731 9.91099 2.16458 10.4704 1.60517C11.0298 1.04576 11.7425 0.664795 12.5185 0.510454C13.2944 0.356114 14.0987 0.435327 14.8296 0.738077C15.5605 1.04083 16.1852 1.55352 16.6247 2.21131C17.0642 2.86911 17.2988 3.64247 17.2988 4.4336C17.2988 4.95888 17.1954 5.47903 16.9943 5.96433C16.7933 6.44963 16.4987 6.89059 16.1272 7.26202C15.7558 7.63346 15.3149 7.92809 14.8296 8.12911C14.3443 8.33013 13.8241 8.4336 13.2988 8.4336ZM13.2988 2.0336C12.8241 2.0336 12.3601 2.17435 11.9655 2.43807C11.5708 2.70178 11.2632 3.07661 11.0815 3.51516C10.8999 3.9537 10.8523 4.43626 10.9449 4.90181C11.0375 5.36737 11.2661 5.79501 11.6018 6.13065C11.9374 6.4663 12.3651 6.69488 12.8306 6.78748C13.2962 6.88008 13.7787 6.83256 14.2173 6.65091C14.6558 6.46926 15.0306 6.16164 15.2943 5.76696C15.5581 5.37229 15.6988 4.90827 15.6988 4.4336C15.6988 3.79708 15.446 3.18663 14.9959 2.73654C14.5458 2.28645 13.9353 2.0336 13.2988 2.0336Z" fill="white"/>
</svg>
