<svg width="18" height="12" viewBox="0 0 18 12" fill="none" xmlns="http://www.w3.org/2000/svg">
<path d="M8.33707 1.18676L0.745547 8.77832C0.379414 9.14445 0.379414 9.73805 0.745547 10.1041L1.63098 10.9896C1.99648 11.3551 2.58887 11.3558 2.95523 10.9911L9 4.97469L15.0447 10.9911C15.4111 11.3558 16.0035 11.3551 16.369 10.9896L17.2544 10.1041C17.6205 9.73801 17.6205 9.14441 17.2544 8.77832L9.66293 1.18676C9.29679 0.820662 8.7032 0.820662 8.33707 1.18676Z" fill="black"/>
<path d="M8.33707 1.18676L0.745547 8.77832C0.379414 9.14445 0.379414 9.73805 0.745547 10.1041L1.63098 10.9896C1.99648 11.3551 2.58887 11.3558 2.95523 10.9911L9 4.97469L15.0447 10.9911C15.4111 11.3558 16.0035 11.3551 16.369 10.9896L17.2544 10.1041C17.6205 9.73801 17.6205 9.14441 17.2544 8.77832L9.66293 1.18676C9.29679 0.820662 8.7032 0.820662 8.33707 1.18676Z" fill="black" fill-opacity="0.2"/>
</svg>
