<svg width="21" height="21" viewBox="0 0 21 21" xmlns="http://www.w3.org/2000/svg">
<path d="M10.4493 20.1143C1.57281 20.1054 -2.89203 9.32542 3.37827 3.04321C7.10049 -0.83573 13.7981 -0.836355 17.5203 3.04336C23.7906 9.32612 19.3252 20.1059 10.4493 20.1143ZM10.4493 1.6768C5.79683 1.6768 2.01179 5.46184 2.01179 10.1143C2.47527 21.3077 18.425 21.3045 18.8868 10.1142C18.8868 5.46187 15.1017 1.6768 10.4493 1.6768ZM14.0876 12.6478L11.6194 10.1795C11.6411 9.81499 11.4856 9.46659 11.2301 9.2405C11.2304 9.23234 11.2305 9.22413 11.2305 9.21589V4.64559C11.1893 3.60903 9.70893 3.60981 9.66803 4.64559V9.21589C9.66803 9.22413 9.66818 9.23234 9.66842 9.2405C8.85143 9.97183 9.40565 11.3415 10.5145 11.2844L12.9827 13.7527C13.2878 14.0578 13.7825 14.0578 14.0876 13.7527C14.3927 13.4476 14.3927 12.9529 14.0876 12.6478Z"/>
<path d="M10.4493 20.1143C1.57281 20.1054 -2.89203 9.32542 3.37827 3.04321C7.10049 -0.83573 13.7981 -0.836355 17.5203 3.04336C23.7906 9.32612 19.3252 20.1059 10.4493 20.1143ZM10.4493 1.6768C5.79683 1.6768 2.01179 5.46184 2.01179 10.1143C2.47527 21.3077 18.425 21.3045 18.8868 10.1142C18.8868 5.46187 15.1017 1.6768 10.4493 1.6768ZM14.0876 12.6478L11.6194 10.1795C11.6411 9.81499 11.4856 9.46659 11.2301 9.2405C11.2304 9.23234 11.2305 9.22413 11.2305 9.21589V4.64559C11.1893 3.60903 9.70893 3.60981 9.66803 4.64559V9.21589C9.66803 9.22413 9.66818 9.23234 9.66842 9.2405C8.85143 9.97183 9.40565 11.3415 10.5145 11.2844L12.9827 13.7527C13.2878 14.0578 13.7825 14.0578 14.0876 13.7527C14.3927 13.4476 14.3927 12.9529 14.0876 12.6478Z" fill-opacity="0.2"/>
</svg>
