<svg width="36" height="41" viewBox="0 0 36 41" xmlns="http://www.w3.org/2000/svg">
<path d="M22.1206 24.5108C21.704 24.5108 21.3055 24.3569 20.9976 24.0761C19.9924 23.1705 19.0325 22.3283 18.0998 21.5133C15.5279 19.2584 13.3092 17.3114 11.7516 15.4096C9.93133 13.1819 9.08008 11.0719 9.08008 8.78072C9.08008 6.62541 9.80455 4.615 11.1267 3.11173C12.4942 1.57222 14.3868 0.711914 16.4425 0.711914C18.6793 0.711914 20.6716 1.78957 22.1206 3.76375C23.5695 1.78957 25.5618 0.711914 27.7986 0.711914C29.8543 0.711914 31.7379 1.56317 33.1054 3.12078C34.4275 4.62406 35.152 6.63447 35.152 8.78977C35.152 11.0809 34.3008 13.1909 32.4805 15.4187C30.932 17.3204 28.7042 19.2674 26.1323 21.5224C25.2086 22.3374 24.2487 23.1796 23.2344 24.0852C22.9356 24.3569 22.5371 24.5108 22.1206 24.5108ZM16.4425 4.07165C14.1604 4.07165 12.4398 6.10017 12.4398 8.78977C12.4398 12.0861 15.3649 14.658 20.2188 18.9143C20.8256 19.4486 21.4595 20.001 22.1115 20.5805C22.7726 20.001 23.3975 19.4486 24.0133 18.9143C28.8672 14.658 31.7923 12.0952 31.7923 8.79883C31.7923 6.10923 30.0717 4.08071 27.7896 4.08071C24.8283 4.08071 23.7416 7.91135 23.7325 7.94757C23.5333 8.6811 22.8722 9.18823 22.1115 9.18823C21.3508 9.18823 20.6897 8.6811 20.4905 7.94757C20.4815 7.91135 20.1826 6.86992 19.4763 5.86472C18.6522 4.66934 17.6288 4.07165 16.4425 4.07165Z" />
<path d="M22.1206 24.5108C21.704 24.5108 21.3055 24.3569 20.9976 24.0761C19.9924 23.1705 19.0325 22.3283 18.0998 21.5133C15.5279 19.2584 13.3092 17.3114 11.7516 15.4096C9.93133 13.1819 9.08008 11.0719 9.08008 8.78072C9.08008 6.62541 9.80455 4.615 11.1267 3.11173C12.4942 1.57222 14.3868 0.711914 16.4425 0.711914C18.6793 0.711914 20.6716 1.78957 22.1206 3.76375C23.5695 1.78957 25.5618 0.711914 27.7986 0.711914C29.8543 0.711914 31.7379 1.56317 33.1054 3.12078C34.4275 4.62406 35.152 6.63447 35.152 8.78977C35.152 11.0809 34.3008 13.1909 32.4805 15.4187C30.932 17.3204 28.7042 19.2674 26.1323 21.5224C25.2086 22.3374 24.2487 23.1796 23.2344 24.0852C22.9356 24.3569 22.5371 24.5108 22.1206 24.5108ZM16.4425 4.07165C14.1604 4.07165 12.4398 6.10017 12.4398 8.78977C12.4398 12.0861 15.3649 14.658 20.2188 18.9143C20.8256 19.4486 21.4595 20.001 22.1115 20.5805C22.7726 20.001 23.3975 19.4486 24.0133 18.9143C28.8672 14.658 31.7923 12.0952 31.7923 8.79883C31.7923 6.10923 30.0717 4.08071 27.7896 4.08071C24.8283 4.08071 23.7416 7.91135 23.7325 7.94757C23.5333 8.6811 22.8722 9.18823 22.1115 9.18823C21.3508 9.18823 20.6897 8.6811 20.4905 7.94757C20.4815 7.91135 20.1826 6.86992 19.4763 5.86472C18.6522 4.66934 17.6288 4.07165 16.4425 4.07165Z" fill-opacity="0.2"/>
<path d="M1.81597 40.7029C0.892264 40.7029 0.140625 39.9512 0.140625 39.0275V29.9354C0.140625 29.0117 0.892264 28.2601 1.81597 28.2601H3.43697L6.42541 25.6339C7.97397 24.2755 9.96627 23.5238 12.0401 23.5238C14.1139 23.5238 16.1062 24.2755 17.6547 25.6339C17.8177 25.7787 17.9988 25.8965 18.189 25.9961H22.2642C23.7041 25.9961 24.99 26.7568 25.6782 27.9612L28.4584 24.9818C29.201 24.1849 30.2605 23.7231 31.3472 23.7231C32.3977 23.7231 33.3939 24.1306 34.1364 24.8822C34.879 25.6248 35.2956 26.6209 35.2956 27.6714C35.2956 28.5317 35.0239 29.3558 34.5077 30.0441L29.0561 37.316C27.4623 39.4441 24.9175 40.7119 22.2642 40.7119H1.81597V40.7029ZM22.2642 37.3431C23.8761 37.3431 25.4066 36.5734 26.3755 35.2874L31.8272 28.0156C31.9087 27.9159 31.9449 27.7892 31.9449 27.6624C31.9449 27.3364 31.6823 27.0737 31.3563 27.0737C31.1842 27.0737 31.0393 27.1371 30.9216 27.2639L25.9228 32.6341C25.1802 33.431 24.1206 33.8928 23.0339 33.8928H15.4451C14.5214 33.8928 13.7697 33.1412 13.7697 32.2175C13.7697 31.2938 14.5214 30.5421 15.4451 30.5421H22.2551C22.5811 30.5421 22.8437 30.2795 22.8437 29.9535C22.8437 29.6275 22.5811 29.3649 22.2551 29.3649H17.8358C16.9755 29.3649 15.7983 28.5046 15.427 28.1695C14.4942 27.3454 13.2898 26.8926 12.031 26.8926C10.7813 26.8926 9.57687 27.3454 8.63505 28.1695L5.16665 31.2213C4.85875 31.493 4.46934 31.6379 4.06183 31.6379H3.48225V37.3612H22.2642V37.3431Z"/>
<path d="M1.81597 40.7029C0.892264 40.7029 0.140625 39.9512 0.140625 39.0275V29.9354C0.140625 29.0117 0.892264 28.2601 1.81597 28.2601H3.43697L6.42541 25.6339C7.97397 24.2755 9.96627 23.5238 12.0401 23.5238C14.1139 23.5238 16.1062 24.2755 17.6547 25.6339C17.8177 25.7787 17.9988 25.8965 18.189 25.9961H22.2642C23.7041 25.9961 24.99 26.7568 25.6782 27.9612L28.4584 24.9818C29.201 24.1849 30.2605 23.7231 31.3472 23.7231C32.3977 23.7231 33.3939 24.1306 34.1364 24.8822C34.879 25.6248 35.2956 26.6209 35.2956 27.6714C35.2956 28.5317 35.0239 29.3558 34.5077 30.0441L29.0561 37.316C27.4623 39.4441 24.9175 40.7119 22.2642 40.7119H1.81597V40.7029ZM22.2642 37.3431C23.8761 37.3431 25.4066 36.5734 26.3755 35.2874L31.8272 28.0156C31.9087 27.9159 31.9449 27.7892 31.9449 27.6624C31.9449 27.3364 31.6823 27.0737 31.3563 27.0737C31.1842 27.0737 31.0393 27.1371 30.9216 27.2639L25.9228 32.6341C25.1802 33.431 24.1206 33.8928 23.0339 33.8928H15.4451C14.5214 33.8928 13.7697 33.1412 13.7697 32.2175C13.7697 31.2938 14.5214 30.5421 15.4451 30.5421H22.2551C22.5811 30.5421 22.8437 30.2795 22.8437 29.9535C22.8437 29.6275 22.5811 29.3649 22.2551 29.3649H17.8358C16.9755 29.3649 15.7983 28.5046 15.427 28.1695C14.4942 27.3454 13.2898 26.8926 12.031 26.8926C10.7813 26.8926 9.57687 27.3454 8.63505 28.1695L5.16665 31.2213C4.85875 31.493 4.46934 31.6379 4.06183 31.6379H3.48225V37.3612H22.2642V37.3431Z" fill-opacity="0.2"/>
</svg>
