<svg width="16" height="14" viewBox="0 0 16 14" xmlns="http://www.w3.org/2000/svg">
<path d="M15.4626 5.09638C15.5807 4.99392 15.7565 5.08977 15.7565 5.25173V12.011C15.7565 12.8869 15.1051 13.5976 14.3021 13.5976H1.69798C0.89507 13.5976 0.243652 12.8869 0.243652 12.011V5.25503C0.243652 5.08977 0.416354 4.99722 0.537548 5.09968C1.21623 5.67481 2.1161 6.40527 5.20654 8.85449C5.84584 9.36351 6.92447 10.4344 8.00006 10.4278C9.08172 10.4377 10.1816 9.34368 10.7966 8.85449C13.8871 6.40527 14.7839 5.6715 15.4626 5.09638ZM8.00006 9.36681C8.70299 9.38003 9.71496 8.40167 10.224 7.99842C14.2446 4.81543 14.5506 4.53779 15.4777 3.74452C15.6535 3.59578 15.7565 3.36441 15.7565 3.11982V2.49181C15.7565 1.61591 15.1051 0.905273 14.3021 0.905273H1.69798C0.89507 0.905273 0.243652 1.61591 0.243652 2.49181V3.11982C0.243652 3.36441 0.346667 3.59247 0.522398 3.74452C1.44953 4.53448 1.75555 4.81543 5.77615 7.99842C6.28517 8.40167 7.29714 9.38003 8.00006 9.36681Z" />
</svg>
