<svg width="35" height="28" viewBox="0 0 35 28" xmlns="http://www.w3.org/2000/svg">
<path d="M34.1042 12.771C33.588 11.9373 32.6749 11.4397 31.6617 11.4397H29.1325V6.80037C29.1325 5.68054 28.1878 4.76979 27.0267 4.76979H14.6458C14.6277 4.76979 14.6155 4.7646 14.6105 4.76149L12.3948 1.66245C12.0018 1.11304 11.3538 0.785156 10.6612 0.785156H2.6058C1.44447 0.785156 0.5 1.69617 0.5 2.81573V25.0717C0.5 26.2177 1.46756 27.1503 2.65717 27.1503H27.7164C28.1068 27.1503 28.4441 26.9248 28.6072 26.5977L28.608 26.598L34.2235 15.3196C34.6307 14.5022 34.5859 13.5494 34.1042 12.771ZM2.6058 2.77734H10.6612C10.7209 2.77734 10.7613 2.80354 10.774 2.82144L12.9932 5.9249C13.3678 6.44888 13.9857 6.76198 14.6458 6.76198H27.0267C27.0962 6.76198 27.1315 6.79466 27.1403 6.80634V11.4397H9.11284C7.99483 11.4397 6.97798 12.0698 6.52222 13.0452L2.49219 21.6694V2.8217C2.50101 2.81003 2.53629 2.77734 2.6058 2.77734ZM32.4401 14.4316L27.0996 25.1578H3.06105L8.32712 13.8887C8.45474 13.6156 8.77069 13.4319 9.11284 13.4319H31.6617C31.9799 13.4319 32.2598 13.5769 32.4103 13.8197C32.4948 13.9564 32.5685 14.1735 32.4401 14.4316Z"/>
</svg>
