<svg width="24" height="25" viewBox="0 0 24 25" fill="none" xmlns="http://www.w3.org/2000/svg">
<g clip-path="url(#clip0)">
<path d="M12 0.982422C5.37554 0.989503 0.00708147 6.35796 0 12.9824V22.4109C0 23.8311 1.15127 24.9824 2.57143 24.9824H6.00001C6.47342 24.9824 6.85717 24.5986 6.85717 24.1252V15.5538C6.85717 15.0804 6.47342 14.6967 6.00001 14.6967H2.57143C2.27878 14.6995 1.98879 14.7529 1.71427 14.8544V12.9823C1.71427 7.3017 6.31933 2.69664 12 2.69664C17.6806 2.69664 22.2857 7.3017 22.2857 12.9823V14.8544C22.0112 14.7529 21.7212 14.6995 21.4285 14.6967H18C17.5266 14.6967 17.1428 15.0804 17.1428 15.5538V24.1253C17.1428 24.5987 17.5266 24.9824 18 24.9824H21.4286C22.8487 24.9824 24 23.8312 24 22.411V12.9824C23.9929 6.35796 18.6245 0.989503 12 0.982422ZM2.57143 16.411H5.14285V23.2681H2.57143C2.09802 23.2681 1.71427 22.8843 1.71427 22.4109V17.2681C1.71427 16.7947 2.09802 16.411 2.57143 16.411ZM22.2857 22.411C22.2857 22.8844 21.9019 23.2682 21.4285 23.2682H18.8571V16.411H21.4285C21.9019 16.411 22.2857 16.7947 22.2857 17.2681V22.411Z" fill="white"/>
</g>
<defs>
<clipPath id="clip0">
<rect width="24" height="24" fill="white" transform="translate(0 0.982422)"/>
</clipPath>
</defs>
</svg>
