<svg width="18" height="18" viewBox="0 0 18 18" xmlns="http://www.w3.org/2000/svg">
<path d="M9.24414 4.65918C6.75977 4.65918 4.75586 6.66309 4.75586 9.14746C4.75586 11.6318 6.75977 13.6357 9.24414 13.6357C11.7285 13.6357 13.7324 11.6318 13.7324 9.14746C13.7324 6.66309 11.7285 4.65918 9.24414 4.65918ZM9.24414 12.0654C7.63867 12.0654 6.32617 10.7568 6.32617 9.14746C6.32617 7.53809 7.63477 6.22949 9.24414 6.22949C10.8535 6.22949 12.1621 7.53809 12.1621 9.14746C12.1621 10.7568 10.8496 12.0654 9.24414 12.0654ZM14.9629 4.47559C14.9629 5.05762 14.4941 5.52246 13.916 5.52246C13.334 5.52246 12.8691 5.05371 12.8691 4.47559C12.8691 3.89746 13.3379 3.42871 13.916 3.42871C14.4941 3.42871 14.9629 3.89746 14.9629 4.47559ZM17.9355 5.53809C17.8691 4.13574 17.5488 2.89355 16.5215 1.87012C15.498 0.84668 14.2559 0.526367 12.8535 0.456055C11.4082 0.374023 7.07617 0.374023 5.63086 0.456055C4.23242 0.522461 2.99023 0.842773 1.96289 1.86621C0.935547 2.88965 0.619141 4.13184 0.548828 5.53418C0.466797 6.97949 0.466797 11.3115 0.548828 12.7568C0.615234 14.1592 0.935547 15.4014 1.96289 16.4248C2.99023 17.4482 4.22852 17.7686 5.63086 17.8389C7.07617 17.9209 11.4082 17.9209 12.8535 17.8389C14.2559 17.7725 15.498 17.4521 16.5215 16.4248C17.5449 15.4014 17.8652 14.1592 17.9355 12.7568C18.0176 11.3115 18.0176 6.9834 17.9355 5.53809ZM16.0684 14.3076C15.7637 15.0732 15.1738 15.6631 14.4043 15.9717C13.252 16.4287 10.5176 16.3232 9.24414 16.3232C7.9707 16.3232 5.23242 16.4248 4.08398 15.9717C3.31836 15.667 2.72852 15.0771 2.41992 14.3076C1.96289 13.1553 2.06836 10.4209 2.06836 9.14746C2.06836 7.87402 1.9668 5.13574 2.41992 3.9873C2.72461 3.22168 3.31445 2.63184 4.08398 2.32324C5.23633 1.86621 7.9707 1.97168 9.24414 1.97168C10.5176 1.97168 13.2559 1.87012 14.4043 2.32324C15.1699 2.62793 15.7598 3.21777 16.0684 3.9873C16.5254 5.13965 16.4199 7.87402 16.4199 9.14746C16.4199 10.4209 16.5254 13.1592 16.0684 14.3076Z" />
</svg>
