<svg width="21" height="16" viewBox="0 0 21 16" fill="none" xmlns="http://www.w3.org/2000/svg">
<path d="M2.6633 15.6642C1.44372 15.6642 0.449219 14.7168 0.449219 13.5495V2.69373C0.449219 1.5265 1.44372 0.579102 2.6633 0.579102H18.2351C19.4495 0.579102 20.444 1.5265 20.4492 2.69897V13.5548C20.4492 14.722 19.4547 15.6694 18.2351 15.6694H2.6633V15.6642ZM2.07707 13.5443C2.07707 13.806 2.34401 14.0311 2.65807 14.0311H18.2351C18.5492 14.0311 18.8161 13.806 18.8161 13.5443V3.66206L12.043 9.38308C11.9593 9.45636 11.1951 10.0897 10.4152 10.0897H10.3995C9.87084 10.0845 9.21656 9.68667 8.81876 9.35168L2.07707 3.66206V13.5443ZM10.4518 8.50373L17.8792 2.20695H3.01399L10.4518 8.50373Z" fill="#CB3132"/>
</svg>
