<svg width="18" height="18" viewBox="0 0 18 18" xmlns="http://www.w3.org/2000/svg">
<path d="M4.52333 17.1994H1.16254V6.37673H4.52333V17.1994ZM2.84112 4.90041C1.76645 4.90041 0.894775 4.01028 0.894775 2.93561C0.894775 2.4194 1.09984 1.92434 1.46485 1.55933C1.82986 1.19432 2.32492 0.989258 2.84112 0.989258C3.35733 0.989258 3.85239 1.19432 4.2174 1.55933C4.58241 1.92434 4.78747 2.4194 4.78747 2.93561C4.78747 4.01028 3.91543 4.90041 2.84112 4.90041ZM17.1017 17.1994H13.7481V11.931C13.7481 10.6754 13.7228 9.06521 12.0008 9.06521C10.2535 9.06521 9.9857 10.4294 9.9857 11.8405V17.1994H6.62853V6.37673H9.85182V7.85304H9.89886C10.3475 7.00271 11.4436 6.10534 13.0787 6.10534C16.48 6.10534 17.1053 8.34515 17.1053 11.2544V17.1994H17.1017Z" />
</svg>
