<svg width="40" height="41" viewBox="0 0 40 41" xmlns="http://www.w3.org/2000/svg">
<g clip-path="url(#clip0)">
<path d="M22.0169 40.7119V40.3604V40.7119H4.50907C4.1497 40.7119 3.79813 40.6573 3.4622 40.5557C2.54813 40.2744 1.79813 39.6573 1.35282 38.8135C0.907508 37.9698 0.813758 37.001 1.09501 36.0869L3.42313 28.5088C3.88407 27.001 5.25126 25.9775 6.82938 25.9775H19.7044C21.2825 25.9775 22.6575 26.9932 23.1106 28.5088L25.4388 36.0791C25.5403 36.4229 25.595 36.7744 25.595 37.1338C25.595 39.1026 23.9934 40.7119 22.0169 40.7119ZM6.8372 29.4854C6.80595 29.4854 6.78251 29.5088 6.77469 29.5322L4.44657 37.1104C4.44657 37.1182 4.44657 37.126 4.44657 37.1338C4.44657 37.1729 4.47782 37.2041 4.51688 37.2041H22.0247C22.0325 37.2041 22.0403 37.2041 22.0481 37.2041C22.0872 37.1963 22.1028 37.1494 22.095 37.1182L19.7669 29.54C19.7591 29.5088 19.7278 29.4932 19.7044 29.4932H14.5403V33.3526C14.5403 34.3213 13.7513 35.1104 12.7825 35.1104C11.8138 35.1104 11.0247 34.3213 11.0247 33.3526V29.4932H6.8372V29.4854Z" />
<path d="M12.7666 23.8682C9.47754 23.8682 6.79785 21.1885 6.79785 17.8994C6.79785 14.6104 9.47754 11.9385 12.7588 11.9307C16.0479 11.9307 18.7275 14.6104 18.7275 17.8994C18.7275 21.1885 16.0557 23.8682 12.7666 23.8682ZM12.7666 15.4463C11.415 15.4463 10.3135 16.5479 10.3135 17.8994C10.3135 19.251 11.415 20.3525 12.7666 20.3525C14.1182 20.3525 15.2197 19.251 15.2197 17.8994C15.2197 16.5557 14.1182 15.4541 12.7666 15.4463Z"/>
<path d="M36.0557 29.4853V29.1338V29.4853H26.7979C25.8291 29.4853 25.04 28.6963 25.04 27.7275C25.04 26.7588 25.8291 25.9697 26.7979 25.9697H36.0479C36.0557 25.9697 36.0635 25.9697 36.0713 25.9697C36.0947 25.9619 36.1025 25.9463 36.1104 25.9385C36.1182 25.9229 36.126 25.9072 36.1182 25.8838L33.79 18.3057C33.7822 18.2744 33.751 18.2588 33.7275 18.2588H22.5869C21.6182 18.2588 20.8291 17.4697 20.8291 16.501C20.8291 15.5322 21.6182 14.7432 22.5869 14.7432H33.7354C35.3135 14.7432 36.6885 15.7588 37.1416 17.2744L39.4697 24.8447C39.5713 25.1885 39.626 25.54 39.626 25.8994C39.6338 27.876 38.0244 29.4853 36.0557 29.4853Z"/>
<path d="M26.7978 12.6416C23.5088 12.6416 20.8369 9.96191 20.8369 6.68066C20.8369 3.3916 23.5166 0.711914 26.8057 0.711914C30.0947 0.711914 32.7744 3.3916 32.7744 6.68066C32.7744 9.96973 30.0869 12.6416 26.7978 12.6416ZM26.7978 4.21973C25.4463 4.21973 24.3447 5.32129 24.3447 6.67285C24.3447 8.02441 25.4463 9.12598 26.7978 9.12598C28.1494 9.12598 29.251 8.02441 29.251 6.67285C29.2588 5.32129 28.1572 4.21973 26.7978 4.21973Z"/>
<path d="M5.75098 11.2354C4.78223 11.2354 3.99316 10.4463 3.99316 9.47754V7.72754H2.24316C1.27441 7.72754 0.485352 6.94629 0.485352 5.97754C0.485352 5.00879 1.27441 4.21973 2.24316 4.21973H4.00098V2.46973C3.99316 1.50098 4.78223 0.711914 5.75098 0.711914C6.71973 0.711914 7.50879 1.50098 7.50879 2.46973V4.22754H9.2666C10.2354 4.22754 11.0244 5.0166 11.0244 5.98535C11.0244 6.9541 10.2354 7.74316 9.2666 7.74316H7.50098V9.50098C7.50098 10.4541 6.71973 11.2354 5.75098 11.2354Z"/>
</g>
<defs>
<clipPath id="clip0">
<rect width="39.1484" height="40" fill="white" transform="translate(0.485352 0.711914)"/>
</clipPath>
</defs>
</svg>
