<svg width="16" height="20" viewBox="0 0 16 20" xmlns="http://www.w3.org/2000/svg">
<path d="M8.71094 0.399414C4.70312 0.399414 0.742188 3.07129 0.742188 7.39551C0.742188 10.1455 2.28906 11.708 3.22656 11.708C3.61328 11.708 3.83594 10.6299 3.83594 10.3252C3.83594 9.96191 2.91016 9.18848 2.91016 7.67676C2.91016 4.53613 5.30078 2.30957 8.39453 2.30957C11.0547 2.30957 13.0234 3.82129 13.0234 6.59863C13.0234 8.67285 12.1914 12.5635 9.49609 12.5635C8.52344 12.5635 7.69141 11.8604 7.69141 10.8525C7.69141 9.37598 8.72266 7.94629 8.72266 6.42285C8.72266 3.83691 5.05469 4.30566 5.05469 7.43066C5.05469 8.08691 5.13672 8.81348 5.42969 9.41113C4.89062 11.7314 3.78906 15.1885 3.78906 17.5791C3.78906 18.3174 3.89453 19.0439 3.96484 19.7822C4.09766 19.9307 4.03125 19.915 4.23438 19.8408C6.20312 17.1455 6.13281 16.6182 7.02344 13.0908C7.50391 14.0049 8.74609 14.4971 9.73047 14.4971C13.8789 14.4971 15.7422 10.4541 15.7422 6.80957C15.7422 2.93066 12.3906 0.399414 8.71094 0.399414Z" />
</svg>
