<svg width="23" height="23" viewBox="0 0 23 23" fill="none" xmlns="http://www.w3.org/2000/svg">
<path d="M9.85273 18.329C11.8194 18.329 13.7299 17.6729 15.2814 16.4644L21.135 22.318C21.5723 22.7403 22.2691 22.7282 22.6914 22.2909C23.1034 21.8643 23.1034 21.1881 22.6914 20.7616L16.8378 14.908C19.8366 11.0477 19.1383 5.48739 15.2781 2.4886C11.4178 -0.510187 5.85751 0.188128 2.85872 4.04838C-0.140069 7.90863 0.558245 13.469 4.4185 16.4678C5.9726 17.6751 7.88475 18.33 9.85273 18.329ZM5.14942 4.77592C7.74702 2.17828 11.9585 2.17823 14.5562 4.77582C17.1538 7.37342 17.1539 11.5849 14.5563 14.1826C11.9587 16.7802 7.74716 16.7803 5.14952 14.1827C5.14947 14.1826 5.14947 14.1826 5.14942 14.1826C2.55183 11.6039 2.53652 7.40775 5.11519 4.81015C5.12659 4.79871 5.13798 4.78731 5.14942 4.77592Z" fill="black"/>
<path d="M9.85273 18.329C11.8194 18.329 13.7299 17.6729 15.2814 16.4644L21.135 22.318C21.5723 22.7403 22.2691 22.7282 22.6914 22.2909C23.1034 21.8643 23.1034 21.1881 22.6914 20.7616L16.8378 14.908C19.8366 11.0477 19.1383 5.48739 15.2781 2.4886C11.4178 -0.510187 5.85751 0.188128 2.85872 4.04838C-0.140069 7.90863 0.558245 13.469 4.4185 16.4678C5.9726 17.6751 7.88475 18.33 9.85273 18.329ZM5.14942 4.77592C7.74702 2.17828 11.9585 2.17823 14.5562 4.77582C17.1538 7.37342 17.1539 11.5849 14.5563 14.1826C11.9587 16.7802 7.74716 16.7803 5.14952 14.1827C5.14947 14.1826 5.14947 14.1826 5.14942 14.1826C2.55183 11.6039 2.53652 7.40775 5.11519 4.81015C5.12659 4.79871 5.13798 4.78731 5.14942 4.77592Z" fill="black" fill-opacity="0.2"/>
</svg>
