<svg width="41" height="41" viewBox="0 0 41 41" xmlns="http://www.w3.org/2000/svg">
<g clip-path="url(#clip0)">
<path d="M28.3652 17.8994C28.3652 17.0364 27.6657 16.3369 26.8027 16.3369H10.709C9.84602 16.3369 9.14648 17.0364 9.14648 17.8994C9.14648 18.7624 9.84602 19.4619 10.709 19.4619H26.8027C27.6657 19.4619 28.3652 18.7624 28.3652 17.8994Z"/>
<path d="M10.709 22.5869C9.84601 22.5869 9.14648 23.2864 9.14648 24.1494C9.14648 25.0124 9.84601 25.7119 10.709 25.7119H20.4833C21.3462 25.7119 22.0458 25.0124 22.0458 24.1494C22.0458 23.2864 21.3462 22.5869 20.4833 22.5869H10.709Z"/>
<path d="M14.3829 37.5869H9.15723C7.4341 37.5869 6.03223 36.185 6.03223 34.4619V6.96191C6.03223 5.23879 7.4341 3.83691 9.15723 3.83691H28.3673C30.0904 3.83691 31.4923 5.23879 31.4923 6.96191V16.5713C31.4923 17.4343 32.1918 18.1338 33.0548 18.1338C33.9178 18.1338 34.6173 17.4343 34.6173 16.5713V6.96191C34.6173 3.51566 31.8136 0.711914 28.3673 0.711914H9.15723C5.71098 0.711914 2.90723 3.51566 2.90723 6.96191V34.4619C2.90723 37.9082 5.71098 40.7119 9.15723 40.7119H14.3829C15.2459 40.7119 15.9454 40.0124 15.9454 39.1494C15.9454 38.2864 15.2459 37.5869 14.3829 37.5869Z"/>
<path d="M37.3849 23.3348C35.5573 21.5071 32.5835 21.5071 30.757 23.3335L22.1787 31.8929C21.9965 32.0747 21.8621 32.2986 21.7873 32.5449L19.9191 38.6953C19.7534 39.2406 19.8977 39.8327 20.2957 40.2406C20.5938 40.5461 20.9988 40.712 21.4142 40.712C21.5532 40.712 21.6935 40.6934 21.8312 40.6552L28.1379 38.9082C28.3974 38.8363 28.634 38.6986 28.8246 38.5083L37.385 29.964C39.2127 28.1364 39.2127 25.1626 37.3849 23.3348ZM26.9077 36.0063L23.7349 36.8853L24.6634 33.8283L30.4516 28.0529L32.6618 30.2631L26.9077 36.0063ZM35.1764 27.7534L34.8737 28.0555L32.6639 25.8457L32.9656 25.5446C33.5748 24.9354 34.5661 24.9354 35.1753 25.5446C35.7845 26.1539 35.7845 27.1451 35.1764 27.7534Z"/>
<path d="M26.8027 10.0869H10.709C9.84602 10.0869 9.14648 10.7864 9.14648 11.6494C9.14648 12.5124 9.84602 13.2119 10.709 13.2119H26.8027C27.6657 13.2119 28.3652 12.5124 28.3652 11.6494C28.3652 10.7864 27.6657 10.0869 26.8027 10.0869Z"/>
</g>
<defs>
<clipPath id="clip0">
<rect width="40" height="40" fill="white" transform="translate(0.831055 0.711914)"/>
</clipPath>
</defs>
</svg>
