<svg width="21" height="10" viewBox="0 0 21 10" xmlns="http://www.w3.org/2000/svg">
<path d="M3.7249 5.15566L3.90615 7.18691L3.7249 9.32129C3.71553 9.39941 3.65615 9.45879 3.5874 9.45879C3.51865 9.45879 3.45615 9.39941 3.45615 9.32129L3.28115 7.18691L3.45615 5.15566C3.45615 5.08691 3.51553 5.02441 3.5874 5.02441C3.65615 5.02441 3.71553 5.08691 3.7249 5.15566ZM4.39365 3.73066C4.30615 3.73066 4.24678 3.79941 4.2374 3.88691L4.08115 7.18691L4.2374 9.32129C4.24678 9.40879 4.30615 9.47754 4.39365 9.47754C4.47178 9.47754 4.54053 9.40879 4.54053 9.32129L4.72178 7.18691L4.54053 3.88691C4.54053 3.79941 4.47178 3.73066 4.39365 3.73066ZM5.19053 2.97754C5.09365 2.97754 5.0249 3.04629 5.01553 3.14316L4.87803 7.20566L5.01553 9.32441C5.0249 9.42129 5.09365 9.49004 5.19053 9.49004C5.27803 9.49004 5.35615 9.42129 5.35615 9.32441L5.52178 7.20566L5.35615 3.14316C5.35615 3.04629 5.27803 2.97754 5.19053 2.97754ZM0.468652 5.99629C0.424902 5.99629 0.399902 6.03066 0.390527 6.07441L0.243652 7.18691L0.390527 8.28066C0.399902 8.32441 0.424902 8.35879 0.468652 8.35879C0.512402 8.35879 0.537402 8.32441 0.546777 8.28066L0.721777 7.18691L0.546777 6.07441C0.537402 6.03066 0.512402 5.99629 0.468652 5.99629ZM1.20615 5.31191C1.1624 5.31191 1.12803 5.34629 1.12803 5.39004L0.928027 7.18691L1.12803 8.94004C1.12803 8.99316 1.1624 9.02754 1.20615 9.02754C1.2499 9.02754 1.28428 8.99316 1.29365 8.94941L1.51865 7.18691L1.29365 5.39004C1.28428 5.34629 1.2499 5.31191 1.20615 5.31191ZM1.99678 4.95566C1.94365 4.95566 1.8999 4.99941 1.89365 5.05879L1.7124 7.18691L1.89365 9.24316C1.90303 9.29629 1.94678 9.34004 1.99678 9.34004C2.0499 9.34004 2.09365 9.29629 2.09365 9.24316L2.30928 7.18691L2.09365 5.05879C2.09365 4.99941 2.0499 4.95566 1.99678 4.95566ZM2.7874 4.88691C2.72803 4.88691 2.6749 4.93066 2.6749 4.99941L2.49365 7.18691L2.6749 9.30566C2.6749 9.37441 2.72803 9.41816 2.7874 9.41816C2.84678 9.41816 2.8999 9.37441 2.90928 9.30566L3.10928 7.18691L2.90928 4.99941C2.8999 4.93066 2.84678 4.88691 2.7874 4.88691ZM10.3312 1.42129C10.2968 1.39629 10.2437 1.37754 10.1999 1.37754C10.1312 1.37754 10.0687 1.40254 10.0249 1.43691C9.96553 1.49004 9.92803 1.56816 9.92178 1.64629V1.67129L9.81865 7.19316L9.87178 8.20879L9.9249 9.19941C9.93428 9.34629 10.0562 9.46816 10.203 9.46816C10.3499 9.46816 10.4718 9.34629 10.4718 9.19941L10.5937 7.19316L10.4718 1.64629C10.4593 1.55254 10.4093 1.46504 10.3312 1.42129ZM9.49678 1.89941C9.45303 1.87441 9.40928 1.85566 9.35928 1.85566C9.30928 1.85566 9.2624 1.87441 9.22178 1.89941C9.15303 1.94316 9.10928 2.02129 9.10928 2.10879L9.0999 2.16191L9.0124 7.18691C9.0124 7.18691 9.0124 7.19629 9.10928 9.23691V9.24629C9.10928 9.29941 9.12803 9.34941 9.1624 9.39316C9.21553 9.45254 9.28428 9.49004 9.3624 9.49004C9.43115 9.49004 9.49365 9.45566 9.5374 9.41191C9.59053 9.36816 9.61553 9.30879 9.61553 9.23691L9.6249 9.02754L9.72178 7.19629L9.61865 2.10879C9.60928 2.02129 9.56553 1.94316 9.49678 1.89941ZM6.01553 2.60254C5.91865 2.60254 5.83428 2.69004 5.83428 2.79316L5.69678 7.18691L5.83428 9.28691C5.84365 9.39004 5.92178 9.46816 6.01553 9.46816C6.11865 9.46816 6.19678 9.39004 6.20615 9.28691L6.3624 7.18691L6.20615 2.79316C6.1999 2.69004 6.12178 2.60254 6.01553 2.60254ZM17.7874 4.56504C17.4499 4.56504 17.128 4.63379 16.8312 4.75566C16.6312 2.54316 14.7749 0.805664 12.5093 0.805664C11.953 0.805664 11.4155 0.908789 10.9374 1.09941C10.7468 1.16816 10.6937 1.23691 10.6937 1.38691V9.19004C10.6937 9.34629 10.8155 9.45879 10.9624 9.47754H17.7843C19.1374 9.47754 20.2405 8.38379 20.2405 7.03066C20.2437 5.66816 19.1405 4.56504 17.7874 4.56504ZM8.51553 2.68066C8.38428 2.68066 8.28115 2.78379 8.27178 2.92441L8.16865 7.19629L8.27178 9.24629C8.28115 9.37754 8.38428 9.48066 8.51553 9.48066C8.64678 9.48066 8.7499 9.37754 8.7499 9.24629L8.87178 7.19629L8.7499 2.92441C8.74053 2.78379 8.64678 2.68066 8.51553 2.68066ZM6.84053 2.43691C6.7374 2.43691 6.64053 2.53379 6.64053 2.64629L6.51865 7.18691L6.64053 9.27754C6.6499 9.39004 6.7374 9.47754 6.84053 9.47754C6.95303 9.47754 7.04053 9.39004 7.0499 9.27754L7.1874 7.18691L7.0499 2.64629C7.04053 2.53379 6.95303 2.43691 6.84053 2.43691ZM7.6749 2.54316C7.55303 2.54316 7.45928 2.64004 7.45928 2.75879L7.3374 7.18691L7.45928 9.26191C7.46865 9.38379 7.55615 9.47754 7.6749 9.47754C7.79365 9.47754 7.89053 9.38066 7.89053 9.26191L8.02178 7.18691L7.89053 2.75879C7.89053 2.63691 7.79678 2.54316 7.6749 2.54316Z" />
</svg>
