<svg width="40" height="41" viewBox="0 0 40 41" xmlns="http://www.w3.org/2000/svg">
<path d="M28.2559 34.4697C29.1177 34.4697 29.8164 33.771 29.8164 32.9092C29.8164 32.0473 29.1177 31.3486 28.2559 31.3486C27.394 31.3486 26.6953 32.0473 26.6953 32.9092C26.6953 33.771 27.394 34.4697 28.2559 34.4697Z"/>
<path d="M28.2559 34.4697C29.1177 34.4697 29.8164 33.771 29.8164 32.9092C29.8164 32.0473 29.1177 31.3486 28.2559 31.3486C27.394 31.3486 26.6953 32.0473 26.6953 32.9092C26.6953 33.771 27.394 34.4697 28.2559 34.4697Z" fill-opacity="0.2"/>
<path d="M24.6621 14.3379C25.524 14.3379 26.2227 13.6392 26.2227 12.7773C26.2227 11.9155 25.524 11.2168 24.6621 11.2168C23.8002 11.2168 23.1016 11.9155 23.1016 12.7773C23.1016 13.6392 23.8002 14.3379 24.6621 14.3379Z"/>
<path d="M24.6621 14.3379C25.524 14.3379 26.2227 13.6392 26.2227 12.7773C26.2227 11.9155 25.524 11.2168 24.6621 11.2168C23.8002 11.2168 23.1016 11.9155 23.1016 12.7773C23.1016 13.6392 23.8002 14.3379 24.6621 14.3379Z" fill-opacity="0.2"/>
<path d="M38.3904 25.1061H39.9509V15.7426H35.9715C34.2505 15.7426 32.8503 14.3425 32.8503 12.6214C32.8503 11.4536 33.4952 10.3924 34.5334 9.85168L35.8626 9.15941L31.8887 0.711914L0.0365625 15.7357L0.0398437 15.7426H0V25.1061H1.56063C3.28164 25.1061 4.6818 26.5063 4.6818 28.2273C4.6818 29.9483 3.28164 31.3485 1.56063 31.3485H0V40.7119H39.9509V31.3484H38.3903C36.6693 31.3484 35.2691 29.9482 35.2691 28.2272C35.2691 26.5063 36.6693 25.1061 38.3904 25.1061ZM21.2366 9.18723C21.6155 9.93965 22.5261 10.2586 23.2931 9.89777C24.0611 9.53652 24.396 8.62988 24.0558 7.85754L30.3944 4.86777L31.8401 7.94082C30.5121 9.10965 29.7291 10.8007 29.7291 12.6215C29.7291 13.7581 30.0359 14.8237 30.5689 15.7427H7.33828L21.2366 9.18723ZM36.8297 34.2721V37.5907H29.8071C29.8071 36.7289 29.1084 36.0302 28.2466 36.0302C27.3847 36.0302 26.686 36.7289 26.686 37.5907H3.12117V34.2721C5.81055 33.5774 7.80289 31.1306 7.80289 28.2272C7.80289 25.3239 5.81047 22.877 3.12117 22.1824V18.8637H26.6859C26.6859 19.7256 27.3846 20.4243 28.2465 20.4243C29.1084 20.4243 29.807 19.7256 29.807 18.8637H36.8296V22.1824C34.1402 22.8771 32.1479 25.3239 32.1479 28.2272C32.148 31.1307 34.1403 33.5774 36.8297 34.2721Z"/>
<path d="M38.3904 25.1061H39.9509V15.7426H35.9715C34.2505 15.7426 32.8503 14.3425 32.8503 12.6214C32.8503 11.4536 33.4952 10.3924 34.5334 9.85168L35.8626 9.15941L31.8887 0.711914L0.0365625 15.7357L0.0398437 15.7426H0V25.1061H1.56063C3.28164 25.1061 4.6818 26.5063 4.6818 28.2273C4.6818 29.9483 3.28164 31.3485 1.56063 31.3485H0V40.7119H39.9509V31.3484H38.3903C36.6693 31.3484 35.2691 29.9482 35.2691 28.2272C35.2691 26.5063 36.6693 25.1061 38.3904 25.1061ZM21.2366 9.18723C21.6155 9.93965 22.5261 10.2586 23.2931 9.89777C24.0611 9.53652 24.396 8.62988 24.0558 7.85754L30.3944 4.86777L31.8401 7.94082C30.5121 9.10965 29.7291 10.8007 29.7291 12.6215C29.7291 13.7581 30.0359 14.8237 30.5689 15.7427H7.33828L21.2366 9.18723ZM36.8297 34.2721V37.5907H29.8071C29.8071 36.7289 29.1084 36.0302 28.2466 36.0302C27.3847 36.0302 26.686 36.7289 26.686 37.5907H3.12117V34.2721C5.81055 33.5774 7.80289 31.1306 7.80289 28.2272C7.80289 25.3239 5.81047 22.877 3.12117 22.1824V18.8637H26.6859C26.6859 19.7256 27.3846 20.4243 28.2465 20.4243C29.1084 20.4243 29.807 19.7256 29.807 18.8637H36.8296V22.1824C34.1402 22.8771 32.1479 25.3239 32.1479 28.2272C32.148 31.1307 34.1403 33.5774 36.8297 34.2721Z" fill-opacity="0.2"/>
<path d="M28.2559 25.1055C29.1177 25.1055 29.8164 24.4068 29.8164 23.5449C29.8164 22.6831 29.1177 21.9844 28.2559 21.9844C27.394 21.9844 26.6953 22.6831 26.6953 23.5449C26.6953 24.4068 27.394 25.1055 28.2559 25.1055Z"/>
<path d="M28.2559 25.1055C29.1177 25.1055 29.8164 24.4068 29.8164 23.5449C29.8164 22.6831 29.1177 21.9844 28.2559 21.9844C27.394 21.9844 26.6953 22.6831 26.6953 23.5449C26.6953 24.4068 27.394 25.1055 28.2559 25.1055Z" fill-opacity="0.2"/>
<path d="M28.2559 29.7881C29.1177 29.7881 29.8164 29.0894 29.8164 28.2275C29.8164 27.3657 29.1177 26.667 28.2559 26.667C27.394 26.667 26.6953 27.3657 26.6953 28.2275C26.6953 29.0894 27.394 29.7881 28.2559 29.7881Z"/>
<path d="M28.2559 29.7881C29.1177 29.7881 29.8164 29.0894 29.8164 28.2275C29.8164 27.3657 29.1177 26.667 28.2559 26.667C27.394 26.667 26.6953 27.3657 26.6953 28.2275C26.6953 29.0894 27.394 29.7881 28.2559 29.7881Z" fill-opacity="0.2"/>
</svg>
