<svg width="16" height="15" viewBox="0 0 16 15" xmlns="http://www.w3.org/2000/svg">
<path d="M14.1619 3.80431C14.1717 3.95463 14.1717 4.10499 14.1717 4.25532C14.1717 8.84041 10.9727 14.1235 5.12586 14.1235C3.32455 14.1235 1.65123 13.5544 0.243652 12.5665C0.499584 12.5987 0.745638 12.6095 1.01142 12.6095C2.49771 12.6095 3.86593 12.0618 4.95852 11.1276C3.56079 11.0954 2.38945 10.0968 1.98588 8.72231C2.18275 8.75451 2.3796 8.77599 2.58633 8.77599C2.87177 8.77599 3.15724 8.73302 3.42299 8.65789C1.96621 8.33573 0.873588 6.93981 0.873588 5.25394V5.21101C1.29683 5.46872 1.78903 5.62979 2.31068 5.65124C1.45432 5.02842 0.893282 3.96538 0.893282 2.76271C0.893282 2.11845 1.05074 1.52786 1.32637 1.01243C2.89144 3.11707 5.24396 4.49151 7.8819 4.64187C7.83269 4.38416 7.80315 4.11573 7.80315 3.84728C7.80315 1.9359 9.22058 0.378906 10.9825 0.378906C11.8979 0.378906 12.7247 0.797686 13.3055 1.47418C14.024 1.32386 14.713 1.03392 15.3233 0.63662C15.0871 1.44199 14.5851 2.11848 13.9256 2.54797C14.5654 2.47284 15.1855 2.27951 15.7564 2.01109C15.3234 2.69829 14.782 3.31033 14.1619 3.80431Z"/>
</svg>
