<svg width="594" height="301" viewBox="0 0 594 301" fill="none" xmlns="http://www.w3.org/2000/svg">
<g clip-path="url(#clip0)">
<path d="M585.593 43.3454C573.873 26.8804 567.122 20.7061 559.988 15.5608C563.045 8.74324 563.682 1.28256 561.517 0.124865C559.224 -1.16146 553.237 5.14153 549.288 12.345C549.288 12.345 431.838 11.4445 367.381 16.9757C217.065 30.0962 70.4443 68.9432 70.4443 68.9432C70.4443 68.9432 61.0178 56.5945 47.0054 53.8932C25.9867 49.9056 7.1336 50.0343 7.1336 50.0343C3.18464 50.0343 0 53.2501 0 57.2377C0 58.3954 0.254772 59.4244 0.636929 60.3249L17.9614 90.9394C29.8083 111.778 130.061 300.996 228.658 300.996C326.49 300.996 348.91 205.165 349.037 204.65L348.273 204.779C239.103 219.186 176.302 222.916 146.239 223.817C138.851 215.842 131.717 207.223 124.965 198.605C162.162 200.534 231.333 201.949 339.865 195.903C378.845 193.717 412.22 191.015 441.137 187.542C443.557 187.028 445.978 186.385 448.398 185.87C448.653 185.87 448.908 185.742 449.162 185.742C450.054 185.484 451.073 185.356 451.965 185.098C452.347 184.97 452.856 184.841 453.239 184.841C454.13 184.584 455.022 184.455 455.786 184.198C456.296 184.069 456.678 183.941 457.188 183.812C457.952 183.683 458.844 183.426 459.608 183.298C460.117 183.169 460.627 183.04 461.137 182.912C461.901 182.783 462.665 182.526 463.302 182.397C463.812 182.268 464.449 182.14 464.958 182.011C465.722 181.883 466.359 181.625 467.124 181.497C467.761 181.368 468.27 181.239 468.907 181.111C469.544 180.982 470.308 180.725 470.945 180.596C471.582 180.468 472.092 180.339 472.729 180.082C473.366 179.953 474.13 179.696 474.767 179.567C475.404 179.439 475.913 179.31 476.55 179.053C477.187 178.924 477.824 178.667 478.588 178.538C479.225 178.409 479.735 178.152 480.372 178.024C481.009 177.895 481.646 177.638 482.283 177.509C482.92 177.38 483.429 177.123 484.066 176.995C484.703 176.866 485.34 176.609 485.977 176.48C486.614 176.351 487.123 176.094 487.76 175.965C488.397 175.837 489.034 175.58 489.671 175.451C490.308 175.322 490.817 175.065 491.454 174.936C492.091 174.679 492.728 174.55 493.238 174.293C493.875 174.165 494.384 173.907 495.021 173.779C495.658 173.521 496.168 173.393 496.805 173.136C497.442 172.878 497.951 172.75 498.588 172.492C498.715 172.492 498.97 172.364 499.098 172.364C496.422 173.264 493.747 174.165 490.945 175.065C449.672 181.625 394.004 184.584 317.063 183.812C211.97 182.783 144.073 177.252 106.24 172.878C100.253 164.26 94.775 155.77 89.6796 147.795C127.004 153.455 195.028 161.559 301.522 166.447C426.488 172.106 492.601 169.534 535.02 154.227C538.969 151.268 542.536 148.052 545.721 144.579C546.995 143.164 548.396 141.621 549.67 140.206C549.924 139.948 550.052 139.691 550.307 139.562C551.453 138.276 552.6 136.99 553.619 135.832C553.746 135.703 553.873 135.575 554.001 135.318C554.128 135.189 554.256 135.06 554.383 134.932C554.256 135.06 554.256 135.06 554.128 135.189C555.02 134.16 555.912 133.131 556.803 132.102C557.185 131.716 557.44 131.33 557.822 130.944C558.714 129.915 559.733 128.757 560.625 127.728C561.007 127.342 561.262 126.956 561.644 126.571C562.281 125.799 562.918 125.156 563.427 124.384C563.81 123.998 564.192 123.483 564.574 123.098C564.574 122.969 564.701 122.969 564.701 122.84C565.593 121.811 566.485 120.653 567.249 119.624C526.103 148.824 458.589 157.314 297.955 146.895C178.722 139.177 107.768 128.243 74.2659 122.068C65.2215 106.761 60.1261 96.7278 60.1261 96.7278C60.1261 96.7278 146.876 115.38 295.917 126.442C471.582 139.562 565.593 122.068 585.21 95.5702C585.338 95.3129 585.592 95.1843 585.72 94.927C596.802 78.7193 596.802 59.1672 585.593 43.3454ZM295.535 107.276C292.86 107.018 290.185 106.761 287.637 106.633C314.388 98.9146 341.139 91.8398 368.145 85.7941C418.717 74.3458 469.799 67.271 521.263 60.968C523.301 63.7979 525.594 67.0137 527.887 71.5159C529.161 73.9599 530.307 76.2753 531.199 78.7193C532.473 81.8065 533.619 84.765 534.511 87.7236C535.912 92.7402 536.549 97.4996 536.167 101.745C533.364 102.516 530.434 103.288 527.377 104.06C527.759 96.0847 524.957 86.6945 519.989 76.6612C519.097 74.8603 518.205 73.1881 517.314 71.6445C516.804 70.7441 516.167 69.8437 515.658 69.2005C466.105 76.2753 416.934 84.1219 368.272 95.9561C351.585 100.072 335.025 104.446 318.464 109.205C310.821 108.562 303.178 107.919 295.535 107.276ZM223.307 100.458C271.204 86.4372 319.484 74.7317 368.145 65.7274C422.284 55.8227 476.932 50.4202 531.963 46.0467C534.766 48.8766 538.842 53.5073 542.791 59.939C550.816 73.1881 555.529 85.4082 552.982 95.6988C550.307 96.8565 547.504 98.0142 544.447 99.1719C546.103 89.2672 541.899 77.3044 534.766 64.9556C531.708 59.6817 529.033 56.08 526.74 53.5073C473.493 58.7813 420.628 65.0843 368.145 75.7608C330.439 83.4787 292.987 92.8689 255.918 103.803C244.326 102.645 233.498 101.487 223.307 100.458ZM514.893 83.9932C516.422 87.0804 517.568 90.039 518.46 92.9975L468.398 83.6073C476.041 82.1924 483.811 80.9061 491.582 79.6197L514.893 83.9932ZM519.861 101.616C519.989 103.031 519.861 104.317 519.861 105.603C516.04 106.375 511.964 107.147 507.887 107.79L424.067 92.2257C431.328 90.6821 438.589 89.2672 445.85 87.8522L519.861 101.616ZM368.145 45.6608C425.723 37.5569 483.811 34.2125 542.154 32.0257C544.574 34.0838 549.924 38.7146 555.529 46.9471C565.466 61.6112 572.472 75.2462 568.395 86.8232C566.102 88.3667 563.555 90.039 560.752 91.5825C564.192 80.5201 558.332 67.1424 549.033 53.1214C544.192 45.918 539.734 41.4159 537.059 38.8432C480.372 42.0591 423.94 46.4326 368.145 55.5655C308.146 65.3415 248.657 79.2338 189.805 96.5992C176.939 95.0556 165.474 93.6407 155.411 92.2257C225.473 71.6445 296.427 55.6941 368.145 45.6608ZM363.941 106.633L399.482 113.193C383.176 112.807 365.979 112.164 347.763 111.135C353.241 109.462 358.591 108.048 363.941 106.633ZM383.049 101.616C389.673 99.9437 396.425 98.4001 403.049 96.8565L480.117 111.135C469.162 112.035 457.442 112.678 444.959 113.064L383.049 101.616ZM576.803 79.6197C580.242 67.9142 572.599 54.665 562.026 40.5155C555.402 31.7685 549.033 26.7518 546.995 25.3368C486.996 26.2373 427.379 28.5526 368.145 35.6274C284.707 45.6608 202.161 63.412 120.507 87.209C99.1061 83.736 89.6796 81.5492 89.6796 81.5492C89.6796 81.5492 199.741 45.918 368.145 26.2373C434.768 18.3907 551.198 19.677 551.198 19.677C551.198 19.677 564.319 28.424 574.637 43.6026C583.682 56.7232 587.121 68.1714 576.803 79.6197ZM348.4 204.779C299.357 241.697 236.555 260.606 203.69 268.452C192.989 263.95 182.162 256.875 171.716 248.128C197.321 244.784 255.154 234.365 348.4 204.779Z" fill="#F5AE01"/>
</g>
<defs>
<clipPath id="clip0">
<rect width="594" height="301" fill="white"/>
</clipPath>
</defs>
</svg>
