<svg width="365" height="185" viewBox="0 0 365 185" fill="none" xmlns="http://www.w3.org/2000/svg">
<g clip-path="url(#clip0)">
<path d="M359.834 27.1403C352.632 17.0753 348.484 13.301 344.1 10.1557C345.979 5.98816 346.37 1.42748 345.04 0.719783C343.631 -0.0665411 339.952 3.78645 337.525 8.18987C337.525 8.18987 265.355 7.63944 225.747 11.0206C133.382 19.0411 43.2865 42.7882 43.2865 42.7882C43.2865 42.7882 37.4941 35.2394 28.8838 33.5882C15.9683 31.1505 4.38344 31.2292 4.38344 31.2292C1.95689 31.2292 0 33.195 0 35.6326C0 36.3403 0.156552 36.9693 0.391379 37.5198L11.0369 56.2343C18.3165 68.9728 79.9196 184.641 140.505 184.641C200.621 184.641 214.397 126.06 214.476 125.745L214.006 125.824C146.924 134.631 108.334 136.911 89.8606 137.462C85.3206 132.586 80.9372 127.318 76.7885 122.05C99.6451 123.229 142.149 124.094 208.84 120.398C232.792 119.062 253.3 117.41 271.069 115.287C272.556 114.973 274.044 114.58 275.531 114.265C275.687 114.265 275.844 114.186 276 114.186C276.548 114.029 277.175 113.951 277.722 113.793C277.957 113.715 278.27 113.636 278.505 113.636C279.053 113.479 279.601 113.4 280.071 113.243C280.384 113.164 280.619 113.086 280.932 113.007C281.401 112.928 281.949 112.771 282.419 112.692C282.732 112.614 283.045 112.535 283.358 112.457C283.828 112.378 284.298 112.221 284.689 112.142C285.002 112.063 285.394 111.985 285.707 111.906C286.176 111.827 286.568 111.67 287.037 111.592C287.429 111.513 287.742 111.434 288.133 111.356C288.525 111.277 288.994 111.12 289.386 111.041C289.777 110.962 290.09 110.884 290.481 110.727C290.873 110.648 291.342 110.491 291.734 110.412C292.125 110.333 292.438 110.255 292.83 110.098C293.221 110.019 293.612 109.862 294.082 109.783C294.474 109.704 294.787 109.547 295.178 109.468C295.569 109.39 295.961 109.233 296.352 109.154C296.744 109.075 297.057 108.918 297.448 108.839C297.839 108.761 298.231 108.604 298.622 108.525C299.014 108.446 299.327 108.289 299.718 108.21C300.109 108.132 300.501 107.974 300.892 107.896C301.284 107.817 301.597 107.66 301.988 107.581C302.379 107.424 302.771 107.345 303.084 107.188C303.475 107.11 303.788 106.952 304.18 106.874C304.571 106.716 304.884 106.638 305.276 106.48C305.667 106.323 305.98 106.245 306.371 106.087C306.45 106.087 306.606 106.009 306.685 106.009C305.041 106.559 303.397 107.11 301.675 107.66C276.314 111.67 242.107 113.479 194.828 113.007C130.251 112.378 88.5299 108.997 65.282 106.323C61.603 101.055 58.2372 95.8651 55.1062 90.9898C78.041 94.4497 119.84 99.4035 185.279 102.392C262.067 105.851 302.692 104.279 328.758 94.9215C331.185 93.1129 333.377 91.1471 335.333 89.024C336.116 88.1591 336.977 87.2155 337.76 86.3505C337.917 86.1933 337.995 86.036 338.151 85.9574C338.856 85.171 339.56 84.3847 340.187 83.677C340.265 83.5984 340.343 83.5198 340.421 83.3625C340.5 83.2839 340.578 83.2052 340.656 83.1266C340.578 83.2052 340.578 83.2052 340.5 83.2839C341.048 82.6548 341.596 82.0257 342.143 81.3967C342.378 81.1608 342.535 80.9249 342.77 80.689C343.318 80.0599 343.944 79.3522 344.492 78.7232C344.727 78.4873 344.883 78.2514 345.118 78.0155C345.509 77.5437 345.901 77.1505 346.214 76.6787C346.449 76.4428 346.683 76.1283 346.918 75.8924C346.918 75.8138 346.997 75.8138 346.997 75.7352C347.544 75.1061 348.092 74.3984 348.562 73.7693C323.279 91.6189 281.793 96.8086 183.087 90.4394C109.821 85.7215 66.2213 79.0377 45.6348 75.2634C40.0772 65.9061 36.9462 59.7728 36.9462 59.7728C36.9462 59.7728 90.252 71.1745 181.835 77.9369C289.777 85.9574 347.544 75.2634 359.599 59.0651C359.677 58.9078 359.834 58.8292 359.912 58.6719C366.722 48.7642 366.722 36.8121 359.834 27.1403ZM181.6 66.2206C179.956 66.0634 178.312 65.9061 176.747 65.8275C193.185 61.1095 209.623 56.7847 226.217 53.089C257.293 46.0907 288.681 41.7659 320.305 37.9129C321.557 39.6429 322.966 41.6087 324.375 44.3608C325.158 45.8548 325.862 47.2702 326.41 48.7642C327.193 50.6514 327.897 52.4599 328.445 54.2685C329.306 57.3352 329.698 60.2446 329.463 62.8394C327.741 63.3112 325.94 63.783 324.062 64.2548C324.297 59.3796 322.575 53.6394 319.522 47.5061C318.974 46.4052 318.426 45.383 317.878 44.4394C317.565 43.889 317.173 43.3386 316.86 42.9454C286.411 47.2702 256.197 52.0668 226.295 59.301C216.041 61.8172 205.865 64.4907 195.689 67.4001C190.993 67.007 186.296 66.6138 181.6 66.2206ZM137.217 62.0531C166.649 53.4822 196.316 46.3266 226.217 40.8223C259.484 34.7676 293.065 31.4651 326.88 28.7916C328.602 30.5215 331.107 33.3523 333.533 37.2839C338.465 45.383 341.361 52.8531 339.795 59.1437C338.151 59.8514 336.429 60.5591 334.551 61.2668C335.568 55.2121 332.985 47.8993 328.602 40.3505C326.723 37.1266 325.079 34.9249 323.67 33.3523C290.951 36.5762 258.467 40.4292 226.217 46.9557C203.047 51.6736 180.034 57.4138 157.256 64.0975C150.133 63.3899 143.48 62.6822 137.217 62.0531ZM316.391 51.9881C317.33 53.8753 318.035 55.6839 318.582 57.4924L287.82 51.7522C292.517 50.8873 297.291 50.101 302.066 49.3146L316.391 51.9881ZM319.443 62.7608C319.522 63.6258 319.443 64.4121 319.443 65.1984C317.095 65.6702 314.59 66.142 312.086 66.5352L260.58 57.0206C265.042 56.077 269.504 55.2121 273.965 54.3471L319.443 62.7608ZM226.217 28.5557C261.598 23.6018 297.291 21.5574 333.142 20.2206C334.629 21.4788 337.917 24.3095 341.361 29.342C347.466 38.3061 351.771 46.6411 349.267 53.7181C347.858 54.6616 346.292 55.6839 344.57 56.6275C346.683 49.8651 343.083 41.6873 337.369 33.1164C334.394 28.7129 331.655 25.9608 330.011 24.3882C295.178 26.354 260.502 29.0275 226.217 34.6104C189.349 40.5864 152.794 49.0787 116.631 59.6941C108.725 58.7505 101.68 57.8856 95.4965 57.0206C138.548 44.4394 182.148 34.689 226.217 28.5557ZM223.634 65.8275L245.473 69.8377C235.454 69.6018 224.886 69.2087 213.693 68.5796C217.059 67.5574 220.346 66.6924 223.634 65.8275ZM235.375 62.7608C239.446 61.7386 243.594 60.795 247.665 59.8514L295.021 68.5796C288.29 69.13 281.088 69.5232 273.417 69.7591L235.375 62.7608ZM354.433 49.3146C356.546 42.1591 351.85 34.0599 345.353 25.4104C341.282 20.0634 337.369 16.9967 336.116 16.1317C299.248 16.6822 262.615 18.0976 226.217 22.4223C174.946 28.5557 124.224 39.407 74.0489 53.954C60.8986 51.8309 55.1062 50.4941 55.1062 50.4941C55.1062 50.4941 122.736 28.7129 226.217 16.6822C267.155 11.8856 338.699 12.6719 338.699 12.6719C338.699 12.6719 346.762 18.0189 353.102 27.2976C358.66 35.3181 360.773 42.3164 354.433 49.3146ZM214.084 125.824C183.948 148.392 145.358 159.951 125.163 164.747C118.588 161.995 111.934 157.67 105.516 152.323C121.249 150.279 156.786 143.909 214.084 125.824Z" fill="#F5AE01"/>
</g>
<defs>
<clipPath id="clip0">
<rect width="365" height="184" fill="white" transform="translate(0 0.642578)"/>
</clipPath>
</defs>
</svg>
