<svg width="917" height="460" viewBox="0 0 917 460" fill="none" xmlns="http://www.w3.org/2000/svg">
<path d="M904.021 66.237C885.929 41.0746 875.506 31.6387 864.493 23.7754C869.213 13.3566 870.196 1.95492 866.853 0.185689C863.313 -1.78012 854.071 7.85236 847.974 18.8609C847.974 18.8609 666.659 17.4848 567.152 25.9378C335.099 45.9891 108.75 105.357 108.75 105.357C108.75 105.357 94.1975 86.4848 72.5655 82.3566C40.1175 76.2626 11.0127 76.4592 11.0127 76.4592C4.91636 76.4592 0 81.3737 0 87.4677C0 89.237 0.393309 90.8096 0.983273 92.1857L27.7283 138.972C46.0172 170.818 200.784 459.989 352.995 459.989C504.026 459.989 538.637 313.536 538.833 312.75L537.653 312.946C369.121 334.963 272.17 340.664 225.759 342.04C214.353 329.852 203.341 316.681 192.918 303.51C250.341 306.459 357.125 308.622 524.674 299.382C584.851 296.04 636.374 291.912 681.015 286.604C684.751 285.818 688.487 284.835 692.224 284.049C692.617 284.049 693.011 283.852 693.404 283.852C694.78 283.459 696.354 283.263 697.73 282.869C698.32 282.673 699.107 282.476 699.697 282.476C701.073 282.083 702.45 281.887 703.63 281.493C704.417 281.297 705.006 281.1 705.793 280.904C706.973 280.707 708.35 280.314 709.529 280.117C710.316 279.921 711.103 279.724 711.889 279.528C713.069 279.331 714.249 278.938 715.233 278.741C716.019 278.545 717.002 278.348 717.789 278.151C718.969 277.955 719.952 277.562 721.132 277.365C722.115 277.169 722.902 276.972 723.885 276.775C724.869 276.579 726.049 276.186 727.032 275.989C728.015 275.793 728.802 275.596 729.785 275.203C730.768 275.006 731.948 274.613 732.931 274.416C733.915 274.22 734.701 274.023 735.685 273.63C736.668 273.434 737.651 273.04 738.831 272.844C739.814 272.647 740.601 272.254 741.584 272.057C742.568 271.861 743.551 271.468 744.534 271.271C745.517 271.075 746.304 270.681 747.287 270.485C748.27 270.288 749.254 269.895 750.237 269.698C751.22 269.502 752.007 269.109 752.99 268.912C753.973 268.716 754.957 268.322 755.94 268.126C756.923 267.929 757.71 267.536 758.693 267.34C759.676 266.946 760.66 266.75 761.446 266.357C762.43 266.16 763.216 265.767 764.199 265.57C765.183 265.177 765.969 264.981 766.953 264.587C767.936 264.194 768.723 263.998 769.706 263.604C769.902 263.604 770.296 263.408 770.492 263.408C766.363 264.784 762.233 266.16 757.906 267.536C694.19 277.562 608.252 282.083 489.473 280.904C327.233 279.331 222.416 270.878 164.01 264.194C154.767 251.023 146.311 238.049 138.445 225.861C196.065 234.51 301.078 246.895 465.481 254.365C658.399 263.015 760.463 259.083 825.949 235.69C832.045 231.169 837.552 226.254 842.468 220.946C844.435 218.784 846.598 216.425 848.564 214.263C848.958 213.869 849.154 213.476 849.548 213.28C851.317 211.314 853.087 209.348 854.661 207.579C854.857 207.382 855.054 207.186 855.25 206.793C855.447 206.596 855.644 206.399 855.841 206.203C855.644 206.399 855.644 206.399 855.447 206.596C856.824 205.023 858.2 203.451 859.577 201.878C860.167 201.288 860.56 200.699 861.15 200.109C862.527 198.536 864.1 196.767 865.477 195.194C866.067 194.604 866.46 194.015 867.05 193.425C868.033 192.246 869.016 191.263 869.803 190.083C870.393 189.493 870.983 188.707 871.573 188.117C871.573 187.921 871.769 187.921 871.769 187.724C873.146 186.151 874.523 184.382 875.703 182.81C812.183 227.434 707.956 240.408 459.975 224.485C275.906 212.69 166.37 195.981 114.65 186.545C100.687 163.152 92.8209 147.818 92.8209 147.818C92.8209 147.818 226.743 176.322 456.828 193.228C728.015 213.28 873.146 186.545 903.431 146.049C903.628 145.656 904.021 145.459 904.217 145.066C921.326 120.297 921.326 90.4165 904.021 66.237ZM456.238 163.938C452.109 163.545 447.979 163.152 444.046 162.955C485.343 151.16 526.641 140.348 568.332 131.109C646.403 113.613 725.262 102.801 804.71 93.1686C807.857 97.4934 811.397 102.408 814.936 109.288C816.903 113.023 818.673 116.562 820.049 120.297C822.016 125.015 823.786 129.536 825.162 134.057C827.326 141.724 828.309 148.998 827.719 155.485C823.392 156.664 818.869 157.844 814.15 159.023C814.74 146.835 810.413 132.485 802.744 117.151C801.367 114.399 799.991 111.844 798.614 109.485C797.827 108.109 796.844 106.733 796.057 105.75C719.559 116.562 643.65 128.553 568.528 146.639C542.766 152.929 517.201 159.613 491.636 166.887C479.837 165.904 468.038 164.921 456.238 163.938ZM344.735 153.519C418.677 132.092 493.21 114.203 568.332 100.442C651.91 85.3053 736.275 77.0489 821.229 70.3652C825.556 74.69 831.849 81.7669 837.945 91.5959C850.334 111.844 857.61 130.519 853.677 146.246C849.548 148.015 845.221 149.784 840.501 151.553C843.058 136.416 836.568 118.134 825.556 99.2626C820.836 91.2028 816.706 85.6985 813.166 81.7669C730.965 89.8267 649.353 99.4592 568.332 115.775C510.122 127.57 452.305 141.921 395.079 158.63C377.183 156.861 360.468 155.092 344.735 153.519ZM794.878 128.357C797.237 133.075 799.007 137.596 800.384 142.117L723.099 127.767C734.898 125.604 746.894 123.639 758.89 121.673L794.878 128.357ZM802.547 155.288C802.744 157.451 802.547 159.416 802.547 161.382C796.647 162.562 790.355 163.741 784.062 164.724L654.663 140.938C665.872 138.579 677.082 136.416 688.291 134.254L802.547 155.288ZM568.332 69.7754C657.219 57.3908 746.894 52.2797 836.962 48.9378C840.698 52.0831 848.958 59.16 857.61 71.7412C872.949 94.1515 883.765 114.989 877.472 132.681C873.933 135.04 870 137.596 865.673 139.955C870.983 123.049 861.937 102.604 847.581 81.1771C840.108 70.1686 833.225 63.2883 829.095 59.3566C741.584 64.2712 654.466 70.9549 568.332 84.9122C475.707 99.8524 383.87 121.083 293.015 147.622C273.153 145.263 255.454 143.1 239.919 140.938C348.078 109.485 457.615 85.1088 568.332 69.7754ZM561.842 162.955L616.709 172.981C591.537 172.391 564.988 171.408 536.867 169.835C545.323 167.28 553.583 165.117 561.842 162.955ZM591.34 155.288C601.566 152.733 611.989 150.374 622.215 148.015L741.191 169.835C724.279 171.211 706.186 172.194 686.914 172.784L591.34 155.288ZM890.452 121.673C895.761 103.784 883.962 83.5361 867.64 61.9122C857.414 48.5447 847.581 40.878 844.435 38.7156C751.81 40.0917 659.776 43.6301 568.332 54.4421C439.523 69.7754 312.091 96.9036 186.035 133.271C152.997 127.963 138.445 124.622 138.445 124.622C138.445 124.622 308.354 70.1686 568.332 40.0917C671.182 28.1002 850.924 30.066 850.924 30.066C850.924 30.066 871.18 43.4336 887.109 66.6301C901.071 86.6814 906.381 104.177 890.452 121.673ZM537.85 312.946C462.138 369.365 365.187 398.263 314.451 410.254C297.932 403.374 281.216 392.562 265.09 379.194C304.618 374.083 393.899 358.16 537.85 312.946Z" fill="#191919"/>
</svg>
