<?xml version="1.0" standalone="no"?>
<!DOCTYPE svg PUBLIC "-//W3C//DTD SVG 20010904//EN"
 "http://www.w3.org/TR/2001/REC-SVG-20010904/DTD/svg10.dtd">
<svg version="1.0" xmlns="http://www.w3.org/2000/svg"
 width="206.000000pt" height="206.000000pt" viewBox="0 0 206.000000 206.000000"
 preserveAspectRatio="xMidYMid meet">
<metadata>
Created by potrace 1.14, written by Peter Selinger 2001-2017
</metadata>
<g transform="translate(0.000000,206.000000) scale(0.100000,-0.100000)"
fill="#000000" stroke="none">
<path d="M1914 1511 c-18 -17 -46 -19 -330 -24 -170 -3 -316 -8 -324 -10 -8
-3 -46 -8 -85 -12 -38 -3 -83 -8 -100 -10 -16 -2 -55 -7 -85 -10 -30 -4 -57
-8 -60 -10 -3 -2 -34 -6 -70 -10 -36 -4 -67 -8 -70 -10 -3 -2 -57 -12 -120
-24 -63 -11 -124 -23 -135 -25 -11 -2 -65 -14 -120 -26 -55 -12 -114 -26 -131
-31 -27 -8 -37 -6 -68 15 -22 15 -60 28 -94 32 -134 17 -141 8 -78 -100 25
-43 46 -79 46 -82 0 -10 130 -207 184 -279 80 -106 99 -127 183 -210 181 -176
344 -216 528 -129 35 16 131 103 160 145 16 23 55 105 55 117 0 16 8 19 115
37 55 10 107 19 115 20 286 59 395 100 466 177 41 45 129 158 143 185 31 61 4
144 -71 216 -23 22 -28 35 -24 53 8 29 -3 31 -30 5z"/>
</g>
</svg>
